<?xml version="1.0" encoding="utf-8"?>
<!-- Generator: Adobe Illustrator 16.0.0, SVG Export Plug-In . SVG Version: 6.00 Build 0)  -->
<!DOCTYPE svg PUBLIC "-//W3C//DTD SVG 1.1//EN" "http://www.w3.org/Graphics/SVG/1.1/DTD/svg11.dtd">
<svg version="1.1" id="Calque_1" xmlns="http://www.w3.org/2000/svg" xmlns:xlink="http://www.w3.org/1999/xlink" x="0px" y="0px"
	 width="186.75px" height="86px" viewBox="0 0 186.75 86" enable-background="new 0 0 186.75 86" xml:space="preserve">
<path fill="#12312B" d="M19.551,36.58c4.87,6.253,8.413,12.048,10.63,17.392c2.217,5.343,2.852,10.596,1.91,15.756
	c-0.437,1.673-1,3.29-1.691,4.852c-0.691,1.564-1.582,2.963-2.671,4.198c-1.089,1.237-2.436,2.235-4.034,2.998
	c-1.6,0.764-3.527,1.181-5.78,1.255c-1.455,0.071-2.779-0.202-3.979-0.819c-1.199-0.616-2.272-1.161-3.216-1.635
	c-0.946-0.472-1.69-0.671-2.235-0.6c-0.544,0.073-0.855,0.837-0.926,2.29H4.723V62.857h2.943c-0.217,1.6-0.273,3.107-0.164,4.525
	s0.309,2.781,0.6,4.089c0.29,1.091,0.653,2.164,1.09,3.217c0.436,1.055,1.017,2.018,1.745,2.89c0.726,0.873,1.635,1.599,2.726,2.181
	c1.09,0.583,2.435,0.909,4.034,0.981c1.09,0.073,2.29-0.218,3.598-0.872c1.308-0.655,2.362-1.49,3.162-2.508
	c1.816-2.471,2.58-5.125,2.29-7.959c-0.292-2.835-1.127-5.597-2.508-8.287c-1.381-2.688-3.017-5.25-4.905-7.687
	c-1.892-2.435-3.49-4.525-4.798-6.269c-2.545-3.054-4.563-6.07-6.052-9.051c-1.491-2.979-2.6-5.85-3.326-8.614
	c-0.727-2.761-1.09-5.432-1.09-8.014c0-2.58,0.254-5.033,0.764-7.36c0.942-3.489,2.453-6.196,4.524-8.123
	c2.072-1.925,5.18-2.889,9.323-2.889c1.38,0,2.634,0.346,3.762,1.035c1.125,0.692,2.107,1.292,2.943,1.799
	c0.834,0.509,1.472,0.728,1.908,0.655c0.436-0.071,0.726-0.872,0.872-2.399h3.054v19.082h-3.054
	c0.145-3.342-0.109-6.215-0.763-8.614c-0.509-2.181-1.417-4.179-2.726-5.997C23.367,6.85,21.405,5.94,18.788,5.94
	c-1.454,0-2.817,0.292-4.089,0.872c-1.272,0.583-2.308,1.346-3.107,2.29c-1.745,2.472-2.562,4.961-2.453,7.469
	c0.108,2.507,0.725,4.961,1.854,7.36c1.126,2.398,2.525,4.671,4.197,6.814C16.862,32.891,18.314,34.835,19.551,36.58z"/>
<path fill="#12312B" d="M69.163,43.23c0,4.726,0,8.833,0,12.321s-0.092,6.525-0.273,9.105c-0.181,2.581-0.509,4.762-0.981,6.542
	c-0.473,1.781-1.181,3.363-2.126,4.742c-1.455,2.181-3.308,3.835-5.561,4.961c-2.253,1.128-4.542,1.691-6.868,1.691
	c-2.254,0-4.526-0.563-6.815-1.691c-2.29-1.126-4.163-2.781-5.616-4.961c-0.945-1.379-1.655-2.961-2.126-4.742
	c-0.473-1.781-0.801-3.961-0.981-6.542c-0.183-2.58-0.273-5.616-0.273-9.105s0-7.595,0-12.321c0-6.324,0.036-11.575,0.109-15.755
	c0.072-4.18,0.399-7.65,0.981-10.413c0.29-2.326,1.017-4.378,2.182-6.161c1.161-1.779,2.579-3.216,4.252-4.306
	c2.688-1.671,5.452-2.508,8.287-2.508c1.379,0,2.797,0.218,4.251,0.654c1.454,0.436,2.798,1.055,4.035,1.854
	c1.67,1.09,3.107,2.527,4.307,4.306c1.199,1.783,1.908,3.835,2.127,6.161c0.507,2.763,0.816,6.233,0.926,10.413
	C69.108,31.656,69.163,36.907,69.163,43.23z M61.639,67.546c0-3.054,0-6.723,0-11.013c0-4.288,0.035-8.723,0.109-13.303
	c-0.074-4.506-0.109-8.886-0.109-13.139s0-7.905,0-10.958c0-4.58-0.802-7.777-2.399-9.595c-1.6-1.816-3.562-2.726-5.888-2.726
	c-2.328,0-4.291,0.91-5.889,2.726c-1.599,1.818-2.398,5.016-2.398,9.595V43.23v24.316c0,4.58,0.709,7.833,2.125,9.758
	c1.418,1.927,3.507,2.89,6.271,2.89c2.761,0,4.815-0.963,6.16-2.89C60.965,75.38,61.639,72.126,61.639,67.546z"/>
<path fill="#12312B" d="M87.153,4.086v2.617c-0.509-0.145-0.946-0.145-1.309,0c-0.365,0.146-0.691,0.455-0.981,0.927
	c-0.291,0.473-0.436,1.253-0.436,2.343c0,0.074,0,1.382,0,3.926c0,2.545,0,5.743,0,9.596c0,3.854,0.018,8.087,0.055,12.703
	c0.035,4.617,0.054,8.959,0.054,13.03c0,4.072,0,7.578,0,10.522c0,2.943,0,4.743,0,5.397c0,5.598,0.6,9.559,1.8,11.885
	c1.199,2.327,2.961,3.489,5.288,3.489h0.109h0.108c2.181,0,3.907-1.162,5.179-3.489c1.271-2.326,1.909-6.287,1.909-11.885v-8.505
	c0-1.744,0-3.598,0-5.561V9.974c0-1.09-0.128-1.87-0.382-2.343c-0.255-0.473-0.563-0.781-0.927-0.927
	c-0.436-0.145-0.909-0.145-1.417,0V4.086h12.975v2.617c-0.436-0.145-0.873-0.145-1.308,0c-0.365,0.146-0.674,0.455-0.928,0.927
	c-0.255,0.473-0.381,1.253-0.381,2.343v58.117c0,2.328-0.455,4.417-1.363,6.271c-0.909,1.854-2.09,3.434-3.543,4.742
	c-1.455,1.309-3.053,2.29-4.797,2.945c-1.745,0.653-3.454,0.981-5.125,0.981c-1.746,0-3.49-0.328-5.234-0.981
	c-1.745-0.655-3.326-1.636-4.743-2.945c-1.417-1.308-2.545-2.87-3.379-4.688c-0.837-1.817-1.255-3.888-1.255-6.216
	c0-0.29,0-1.325,0-3.107c0-1.781,0-4.07,0-6.87c0-2.797,0-5.905,0-9.322c0-3.416-0.019-6.905-0.055-10.467
	c-0.037-3.562-0.054-7.05-0.054-10.468c0-3.416,0-6.469,0-9.159c0-2.689,0-4.815,0-6.379c0-1.562,0-2.379,0-2.454
	c0-1.09-0.165-1.87-0.491-2.343c-0.328-0.473-0.674-0.781-1.037-0.927c-0.291-0.145-0.727-0.145-1.307,0V4.086H87.153z"/>
<path fill="#12312B" d="M124.333,76.16c0,1.019,0.163,1.763,0.491,2.235c0.326,0.473,0.635,0.746,0.926,0.817
	c0.363,0.219,0.835,0.219,1.417,0v2.835h-13.192v-2.835c0.581,0.219,1.091,0.219,1.526,0c0.218-0.071,0.491-0.344,0.818-0.817
	c0.327-0.472,0.491-1.217,0.491-2.235V9.974c0-1.09-0.164-1.87-0.491-2.343c-0.328-0.473-0.6-0.781-0.818-0.927
	c-0.435-0.145-0.945-0.145-1.526,0V4.086h13.192v2.617c-0.582-0.145-1.054-0.145-1.417,0c-0.291,0.146-0.6,0.455-0.926,0.927
	c-0.328,0.473-0.491,1.253-0.491,2.343V76.16z"/>
<path fill="#12312B" d="M163.804,79.868c0.508,0,0.909-0.072,1.2-0.219c0.289-0.144,0.582-0.29,0.872-0.436v2.399
	c-0.437,0.364-0.981,0.708-1.635,1.036c-0.655,0.328-1.528,0.491-2.617,0.491c-0.946,0-1.893-0.183-2.835-0.544
	c-0.946-0.365-1.818-0.945-2.616-1.746c-0.802-0.799-1.473-1.834-2.019-3.107c-0.545-1.271-0.855-2.852-0.926-4.743V55.116
	c0-1.598-0.219-2.89-0.654-3.87c-0.437-0.982-1-1.726-1.69-2.236c-0.692-0.507-1.438-0.853-2.235-1.035
	c-0.802-0.181-1.526-0.308-2.182-0.381h-4.471V76.16c0,1.019,0.145,1.763,0.438,2.235c0.289,0.473,0.58,0.746,0.872,0.817
	c0.436,0.219,0.907,0.219,1.417,0v2.835H131.64v-2.835c0.507,0.219,0.942,0.219,1.307,0c0.363-0.071,0.71-0.344,1.037-0.817
	c0.326-0.472,0.489-1.217,0.489-2.235V9.866c0-1.018-0.163-1.78-0.489-2.29c-0.327-0.508-0.674-0.835-1.037-0.981
	c-0.364-0.071-0.8-0.071-1.307,0V3.978h15.59c2.689,0,5.071,0.455,7.143,1.363c2.072,0.909,3.799,2.09,5.18,3.543
	c1.38,1.455,2.415,3.126,3.107,5.016c0.691,1.891,1.035,3.854,1.035,5.888v11.885c0,2.834-0.728,5.598-2.18,8.286
	c-1.455,2.69-3.707,4.689-6.761,5.997c4.145,1.673,6.215,4.871,6.215,9.595v17.446c0,1.891,0.126,3.508,0.382,4.852
	C161.604,79.196,162.423,79.868,163.804,79.868z M141.996,6.704v37.835h5.89c0.653,0,1.433-0.199,2.345-0.599
	c0.907-0.399,1.779-1.018,2.616-1.854c0.835-0.835,1.561-1.925,2.18-3.271c0.616-1.345,0.928-2.961,0.928-4.852V17.389
	c0-1.816-0.312-3.397-0.928-4.743c-0.619-1.345-1.345-2.454-2.18-3.326c-0.837-0.872-1.709-1.527-2.616-1.963
	c-0.912-0.436-1.691-0.654-2.345-0.654H141.996z"/>
<path fill="#12312B" d="M180.923,76.052c0,1.019,0.162,1.763,0.49,2.235c0.326,0.473,0.636,0.746,0.926,0.817
	c0.363,0.219,0.836,0.219,1.417,0v2.835h-13.192v-2.835c0.581,0.219,1.091,0.219,1.525,0c0.219-0.071,0.491-0.344,0.818-0.817
	c0.328-0.472,0.491-1.217,0.491-2.235V9.866c0-1.09-0.163-1.87-0.491-2.343c-0.327-0.473-0.6-0.781-0.818-0.927
	c-0.435-0.145-0.944-0.145-1.525,0V3.978h13.192v2.617c-0.581-0.145-1.054-0.145-1.417,0c-0.29,0.146-0.6,0.455-0.926,0.927
	c-0.328,0.473-0.49,1.253-0.49,2.343V76.052z"/>
</svg>
